# xmcd CD database file
#
# Track frame offsets:
#	150
#	23615
#	33410
#	65525
#	72827
#	101802
#	119920
#	148332
#	161275
#	186425
#
# Disc length: 2693 seconds
#
# Revision: 0
# Processed by: cddbd v1.5.2PL0 Copyright (c) Steve Scherf et al.
# Submitted via: CDex 1.70beta2
#
DISCID=940a830a
DTITLE=Dave Mackay and Vicky Hamilton  - Rainbow
DYEAR=1970
DGENRE=Jazz
TTITLE0=Happying(Flip's Blues)
TTITLE1=Will O'the Wisp 
TTITLE2=If I Ask You 
TTITLE3=4 Ira
TTITLE4=See My Rainbow  
TTITLE5=Peek-a-boo
TTITLE6=Free
TTITLE7=Silent 
TTITLE8=A Time For Love  
TTITLE9=Reach Out 
EXTD=YEAR: 1970
EXTT0=
EXTT1=
EXTT2=
EXTT3=
EXTT4=
EXTT5=
EXTT6=
EXTT7=
EXTT8=
EXTT9=
PLAYORDER=
